<?xml version="1.0" encoding="UTF-8"?>
<svg version="1.1" xmlns="http://www.w3.org/2000/svg" width="32" height="32">
<path d="M0 0 C4.34999469 2.27407532 6.94290863 4.87477157 8.92578125 9.31640625 C9.76608113 15.01617622 10.05258747 20.44940016 6.73828125 25.37890625 C3.66026351 28.87471587 1.18868895 31.0352997 -3.58984375 31.62890625 C-9.97867385 31.90819937 -14.03693099 31.3256761 -19.07421875 27.31640625 C-22.81268346 22.52350278 -23.72765257 18.74055763 -23.4609375 12.6796875 C-22.66800233 7.83397257 -20.01651914 5.14652802 -16.44921875 2.00390625 C-11.51145046 -1.50450806 -5.7975938 -1.91069475 0 0 Z " fill="#090405" transform="translate(23.07421875,0.68359375)"/>
<path d="M0 0 C3.3125 -0.25 3.3125 -0.25 7 0 C8.0260734 1.31337396 9.02727325 2.64664105 10 4 C13 4.66666667 13 4.66666667 16 4 C16.45375 3.34 16.9075 2.68 17.375 2 C19 0 19 0 20.95703125 -0.265625 C22.97324973 -0.25150088 24.98805302 -0.13193095 27 0 C25.56002041 5.62901112 23.1228804 9.09911628 18.11328125 12.1484375 C14.38699103 13.64997404 10.82411063 12.94919889 7 12 C3.54376628 9.86743026 1.33219261 7.87546942 0 4 C0 2.68 0 1.36 0 0 Z " fill="#F2F2F2" transform="translate(3,17)"/>
<path d="M0 0 C4.96916202 2.34905841 7.00945773 4.91305864 9 10 C9 10.66 9 11.32 9 12 C3.66838377 12.35544108 3.66838377 12.35544108 1 12 C-0.35308313 10.68671343 -1.68870078 9.35500919 -3 8 C-6.13362718 7.91107661 -6.13362718 7.91107661 -9 9 C-9.99 10.485 -9.99 10.485 -11 12 C-14.625 12.1875 -14.625 12.1875 -18 12 C-17.71998862 7.98650355 -17.24236211 6.27964858 -14.5625 3.1875 C-9.97399253 -0.72951857 -5.8685999 -0.64004699 0 0 Z " fill="#C70D29" transform="translate(21,3)"/>
<path d="M0 0 C0.598125 0.226875 1.19625 0.45375 1.8125 0.6875 C2.4375 3.0625 2.4375 3.0625 2.8125 5.6875 C2.1525 6.3475 1.4925 7.0075 0.8125 7.6875 C-1.8125 7.3125 -1.8125 7.3125 -4.1875 6.6875 C-4.875 4.875 -4.875 4.875 -5.1875 2.6875 C-3.58493056 0.24147296 -2.95482043 -0.4221172 0 0 Z " fill="#979797" transform="translate(17.1875,12.3125)"/>
<path d="M0 0 C1.32 0 2.64 0 4 0 C2.72278474 4.99275057 0.82669043 7.57611908 -3 11 C-3 8.04725901 -2.56108169 6.50941597 -1.5 3.8125 C-1.2215625 3.09707031 -0.943125 2.38164062 -0.65625 1.64453125 C-0.33140625 0.83048828 -0.33140625 0.83048828 0 0 Z " fill="#A6A6A6" transform="translate(26,17)"/>
<path d="M0 0 C0.66 0.33 1.32 0.66 2 1 C1.2884375 1.804375 1.2884375 1.804375 0.5625 2.625 C-1.28186076 5.42842836 -1.62456847 7.69620258 -2 11 C-3.32 11 -4.64 11 -6 11 C-5.62671065 5.64951939 -4.0042343 3.49087093 0 0 Z " fill="#880C1B" transform="translate(9,4)"/>
<path d="M0 0 C0.99 1.32 1.98 2.64 3 4 C6.465 3.505 6.465 3.505 10 3 C9.34 4.32 8.68 5.64 8 7 C5.1875 7.25 5.1875 7.25 2 7 C0.0625 5.1875 0.0625 5.1875 -1 3 C-0.67 2.01 -0.34 1.02 0 0 Z " fill="#1C1C1C" transform="translate(11,15)"/>
<path d="M0 0 C0 0.99 0 1.98 0 3 C-2.31 2.67 -4.62 2.34 -7 2 C-7.33 2.66 -7.66 3.32 -8 4 C-8 2.68 -8 1.36 -8 0 C-5.13822943 -1.43088528 -3.06624227 -0.59991697 0 0 Z " fill="#1F0A0D" transform="translate(20,11)"/>
</svg>
